<svg xmlns="http://www.w3.org/2000/svg" xmlns:xlink="http://www.w3.org/1999/xlink" contentStyleType="text/css" height="874px" preserveAspectRatio="none" style="width:2038px;height:874px;background:#FFFFFF;" version="1.1" viewBox="0 0 2038 874" width="2038px" zoomAndPan="magnify"><defs/><g><!--class User--><g id="elem_User"><rect codeLine="4" fill="#F1F1F1" height="162.0781" id="User" rx="2.5" ry="2.5" style="stroke:#181818;stroke-width:0.5;" width="411.8887" x="808.5" y="213"/><ellipse cx="994.2393" cy="229" fill="#ADD1B2" rx="11" ry="11" style="stroke:#181818;stroke-width:1;"/><path d="M997.208,234.6406 Q996.6299,234.9375 995.9893,235.0781 Q995.3486,235.2344 994.6455,235.2344 Q992.1455,235.2344 990.8174,233.5938 Q989.5049,231.9375 989.5049,228.8125 Q989.5049,225.6875 990.8174,224.0313 Q992.1455,222.375 994.6455,222.375 Q995.3486,222.375 995.9893,222.5313 Q996.6455,222.6875 997.208,222.9844 L997.208,225.7031 Q996.583,225.125 995.9893,224.8594 Q995.3955,224.5781 994.7705,224.5781 Q993.4268,224.5781 992.7393,225.6563 Q992.0518,226.7188 992.0518,228.8125 Q992.0518,230.9063 992.7393,231.9844 Q993.4268,233.0469 994.7705,233.0469 Q995.3955,233.0469 995.9893,232.7813 Q996.583,232.5 997.208,231.9219 L997.208,234.6406 Z " fill="#000000"/><text fill="#000000" font-family="sans-serif" font-size="14" lengthAdjust="spacing" textLength="31.9102" x="1014.7393" y="233.8467">User</text><line style="stroke:#181818;stroke-width:0.5;" x1="809.5" x2="1219.3887" y1="245" y2="245"/><rect fill="none" height="6" style="stroke:#C82930;stroke-width:1;" width="6" x="816.5" y="255.6484"/><text fill="#000000" font-family="sans-serif" font-size="14" lengthAdjust="spacing" textLength="121.1875" x="828.5" y="261.9951">username: String</text><rect fill="none" height="6" style="stroke:#C82930;stroke-width:1;" width="6" x="816.5" y="271.9453"/><text fill="#000000" font-family="sans-serif" font-size="14" lengthAdjust="spacing" textLength="175.7793" x="828.5" y="278.292">hashed_password: String</text><rect fill="none" height="6" style="stroke:#C82930;stroke-width:1;" width="6" x="816.5" y="288.2422"/><text fill="#000000" font-family="sans-serif" font-size="14" lengthAdjust="spacing" textLength="63.123" x="828.5" y="294.5889">iv: String</text><rect fill="none" height="6" style="stroke:#C82930;stroke-width:1;" width="6" x="816.5" y="304.5391"/><text fill="#000000" font-family="sans-serif" font-size="14" lengthAdjust="spacing" textLength="106.0664" x="828.5" y="310.8857">balance: String</text><line style="stroke:#181818;stroke-width:0.5;" x1="809.5" x2="1219.3887" y1="318.1875" y2="318.1875"/><ellipse cx="819.5" cy="331.8359" fill="#84BE84" rx="3" ry="3" style="stroke:#038048;stroke-width:1;"/><text fill="#000000" font-family="sans-serif" font-size="14" lengthAdjust="spacing" textLength="379.75" x="828.5" y="335.1826">create_user(username: String, password: String): void</text><ellipse cx="819.5" cy="348.1328" fill="#84BE84" rx="3" ry="3" style="stroke:#038048;stroke-width:1;"/><text fill="#000000" font-family="sans-serif" font-size="14" lengthAdjust="spacing" textLength="233.7139" x="828.5" y="351.4795">get_user(username: String): User</text><ellipse cx="819.5" cy="364.4297" fill="#84BE84" rx="3" ry="3" style="stroke:#038048;stroke-width:1;"/><text fill="#000000" font-family="sans-serif" font-size="14" lengthAdjust="spacing" textLength="385.8887" x="828.5" y="367.7764">update_balance(username: String, amount: float): void</text></g><!--class Transaction--><g id="elem_Transaction"><rect codeLine="14" fill="#F1F1F1" height="129.4844" id="Transaction" rx="2.5" ry="2.5" style="stroke:#181818;stroke-width:0.5;" width="526.1445" x="1218.5" y="405"/><ellipse cx="1436.2485" cy="421" fill="#ADD1B2" rx="11" ry="11" style="stroke:#181818;stroke-width:1;"/><path d="M1439.2173,426.6406 Q1438.6392,426.9375 1437.9985,427.0781 Q1437.3579,427.2344 1436.6548,427.2344 Q1434.1548,427.2344 1432.8267,425.5938 Q1431.5142,423.9375 1431.5142,420.8125 Q1431.5142,417.6875 1432.8267,416.0313 Q1434.1548,414.375 1436.6548,414.375 Q1437.3579,414.375 1437.9985,414.5313 Q1438.6548,414.6875 1439.2173,414.9844 L1439.2173,417.7031 Q1438.5923,417.125 1437.9985,416.8594 Q1437.4048,416.5781 1436.7798,416.5781 Q1435.436,416.5781 1434.7485,417.6563 Q1434.061,418.7188 1434.061,420.8125 Q1434.061,422.9063 1434.7485,423.9844 Q1435.436,425.0469 1436.7798,425.0469 Q1437.4048,425.0469 1437.9985,424.7813 Q1438.5923,424.5 1439.2173,423.9219 L1439.2173,426.6406 Z " fill="#000000"/><text fill="#000000" font-family="sans-serif" font-size="14" lengthAdjust="spacing" textLength="82.1475" x="1456.7485" y="425.8467">Transaction</text><line style="stroke:#181818;stroke-width:0.5;" x1="1219.5" x2="1743.6445" y1="437" y2="437"/><rect fill="none" height="6" style="stroke:#C82930;stroke-width:1;" width="6" x="1226.5" y="447.6484"/><text fill="#000000" font-family="sans-serif" font-size="14" lengthAdjust="spacing" textLength="98.9844" x="1238.5" y="453.9951">sender: String</text><rect fill="none" height="6" style="stroke:#C82930;stroke-width:1;" width="6" x="1226.5" y="463.9453"/><text fill="#000000" font-family="sans-serif" font-size="14" lengthAdjust="spacing" textLength="108.1719" x="1238.5" y="470.292">receiver: String</text><rect fill="none" height="6" style="stroke:#C82930;stroke-width:1;" width="6" x="1226.5" y="480.2422"/><text fill="#000000" font-family="sans-serif" font-size="14" lengthAdjust="spacing" textLength="94.6367" x="1238.5" y="486.5889">amount: float</text><rect fill="none" height="6" style="stroke:#C82930;stroke-width:1;" width="6" x="1226.5" y="496.5391"/><text fill="#000000" font-family="sans-serif" font-size="14" lengthAdjust="spacing" textLength="126.4648" x="1238.5" y="502.8857">timestamp: String</text><line style="stroke:#181818;stroke-width:0.5;" x1="1219.5" x2="1743.6445" y1="510.1875" y2="510.1875"/><ellipse cx="1229.5" cy="523.8359" fill="#84BE84" rx="3" ry="3" style="stroke:#038048;stroke-width:1;"/><text fill="#000000" font-family="sans-serif" font-size="14" lengthAdjust="spacing" textLength="500.1445" x="1238.5" y="527.1826">create_transaction(sender: String, receiver: String, amount: float): void</text></g><!--class Encryption--><g id="elem_Encryption"><rect codeLine="23" fill="#F1F1F1" height="113.1875" id="Encryption" rx="2.5" ry="2.5" style="stroke:#181818;stroke-width:0.5;" width="409.4141" x="7" y="564"/><ellipse cx="169.8765" cy="580" fill="#ADD1B2" rx="11" ry="11" style="stroke:#181818;stroke-width:1;"/><path d="M172.8452,585.6406 Q172.2671,585.9375 171.6265,586.0781 Q170.9858,586.2344 170.2827,586.2344 Q167.7827,586.2344 166.4546,584.5938 Q165.1421,582.9375 165.1421,579.8125 Q165.1421,576.6875 166.4546,575.0313 Q167.7827,573.375 170.2827,573.375 Q170.9858,573.375 171.6265,573.5313 Q172.2827,573.6875 172.8452,573.9844 L172.8452,576.7031 Q172.2202,576.125 171.6265,575.8594 Q171.0327,575.5781 170.4077,575.5781 Q169.064,575.5781 168.3765,576.6563 Q167.689,577.7188 167.689,579.8125 Q167.689,581.9063 168.3765,582.9844 Q169.064,584.0469 170.4077,584.0469 Q171.0327,584.0469 171.6265,583.7813 Q172.2202,583.5 172.8452,582.9219 L172.8452,585.6406 Z " fill="#000000"/><text fill="#000000" font-family="sans-serif" font-size="14" lengthAdjust="spacing" textLength="75.1611" x="190.3765" y="584.8467">Encryption</text><line style="stroke:#181818;stroke-width:0.5;" x1="8" x2="415.4141" y1="596" y2="596"/><rect fill="none" height="6" style="stroke:#C82930;stroke-width:1;" width="6" x="15" y="606.6484"/><text fill="#000000" font-family="sans-serif" font-size="14" lengthAdjust="spacing" textLength="75.9541" x="27" y="612.9951">key: String</text><line style="stroke:#181818;stroke-width:0.5;" x1="8" x2="415.4141" y1="620.2969" y2="620.2969"/><ellipse cx="18" cy="633.9453" fill="#84BE84" rx="3" ry="3" style="stroke:#038048;stroke-width:1;"/><text fill="#000000" font-family="sans-serif" font-size="14" lengthAdjust="spacing" textLength="198.7959" x="27" y="637.292">get_encryption_key(): String</text><ellipse cx="18" cy="650.2422" fill="#84BE84" rx="3" ry="3" style="stroke:#038048;stroke-width:1;"/><text fill="#000000" font-family="sans-serif" font-size="14" lengthAdjust="spacing" textLength="305.2998" x="27" y="653.5889">encrypt_data(data: String, iv: bytes): String</text><ellipse cx="18" cy="666.5391" fill="#84BE84" rx="3" ry="3" style="stroke:#038048;stroke-width:1;"/><text fill="#000000" font-family="sans-serif" font-size="14" lengthAdjust="spacing" textLength="383.4141" x="27" y="669.8857">decrypt_data(encrypted_data: String, iv: bytes): String</text></g><!--class JWT--><g id="elem_JWT"><rect codeLine="31" fill="#F1F1F1" height="80.5938" id="JWT" rx="2.5" ry="2.5" style="stroke:#181818;stroke-width:0.5;" width="281.6367" x="1749.5" y="429"/><ellipse cx="1872.8066" cy="445" fill="#ADD1B2" rx="11" ry="11" style="stroke:#181818;stroke-width:1;"/><path d="M1875.7754,450.6406 Q1875.1973,450.9375 1874.5566,451.0781 Q1873.916,451.2344 1873.2129,451.2344 Q1870.7129,451.2344 1869.3848,449.5938 Q1868.0723,447.9375 1868.0723,444.8125 Q1868.0723,441.6875 1869.3848,440.0313 Q1870.7129,438.375 1873.2129,438.375 Q1873.916,438.375 1874.5566,438.5313 Q1875.2129,438.6875 1875.7754,438.9844 L1875.7754,441.7031 Q1875.1504,441.125 1874.5566,440.8594 Q1873.9629,440.5781 1873.3379,440.5781 Q1871.9941,440.5781 1871.3066,441.6563 Q1870.6191,442.7188 1870.6191,444.8125 Q1870.6191,446.9063 1871.3066,447.9844 Q1871.9941,449.0469 1873.3379,449.0469 Q1873.9629,449.0469 1874.5566,448.7813 Q1875.1504,448.5 1875.7754,447.9219 L1875.7754,450.6406 Z " fill="#000000"/><text fill="#000000" font-family="sans-serif" font-size="14" lengthAdjust="spacing" textLength="26.5234" x="1893.3066" y="449.8467">JWT</text><line style="stroke:#181818;stroke-width:0.5;" x1="1750.5" x2="2030.1367" y1="461" y2="461"/><line style="stroke:#181818;stroke-width:0.5;" x1="1750.5" x2="2030.1367" y1="469" y2="469"/><ellipse cx="1760.5" cy="482.6484" fill="#84BE84" rx="3" ry="3" style="stroke:#038048;stroke-width:1;"/><text fill="#000000" font-family="sans-serif" font-size="14" lengthAdjust="spacing" textLength="255.6367" x="1769.5" y="485.9951">create_jwt(username: String): String</text><ellipse cx="1760.5" cy="498.9453" fill="#84BE84" rx="3" ry="3" style="stroke:#038048;stroke-width:1;"/><text fill="#000000" font-family="sans-serif" font-size="14" lengthAdjust="spacing" textLength="207.8193" x="1769.5" y="502.292">verify_jwt(token: String): Map</text></g><!--class Password--><g id="elem_Password"><rect codeLine="37" fill="#F1F1F1" height="80.5938" id="Password" rx="2.5" ry="2.5" style="stroke:#181818;stroke-width:0.5;" width="493.0381" x="451" y="580"/><ellipse cx="660.1353" cy="596" fill="#ADD1B2" rx="11" ry="11" style="stroke:#181818;stroke-width:1;"/><path d="M663.104,601.6406 Q662.5259,601.9375 661.8853,602.0781 Q661.2446,602.2344 660.5415,602.2344 Q658.0415,602.2344 656.7134,600.5938 Q655.4009,598.9375 655.4009,595.8125 Q655.4009,592.6875 656.7134,591.0313 Q658.0415,589.375 660.5415,589.375 Q661.2446,589.375 661.8853,589.5313 Q662.5415,589.6875 663.104,589.9844 L663.104,592.7031 Q662.479,592.125 661.8853,591.8594 Q661.2915,591.5781 660.6665,591.5781 Q659.3228,591.5781 658.6353,592.6563 Q657.9478,593.7188 657.9478,595.8125 Q657.9478,597.9063 658.6353,598.9844 Q659.3228,600.0469 660.6665,600.0469 Q661.2915,600.0469 661.8853,599.7813 Q662.479,599.5 663.104,598.9219 L663.104,601.6406 Z " fill="#000000"/><text fill="#000000" font-family="sans-serif" font-size="14" lengthAdjust="spacing" textLength="66.2676" x="680.6353" y="600.8467">Password</text><line style="stroke:#181818;stroke-width:0.5;" x1="452" x2="943.0381" y1="612" y2="612"/><line style="stroke:#181818;stroke-width:0.5;" x1="452" x2="943.0381" y1="620" y2="620"/><ellipse cx="462" cy="633.6484" fill="#84BE84" rx="3" ry="3" style="stroke:#038048;stroke-width:1;"/><text fill="#000000" font-family="sans-serif" font-size="14" lengthAdjust="spacing" textLength="286.8633" x="471" y="636.9951">hash_password(password: String): String</text><ellipse cx="462" cy="649.9453" fill="#84BE84" rx="3" ry="3" style="stroke:#038048;stroke-width:1;"/><text fill="#000000" font-family="sans-serif" font-size="14" lengthAdjust="spacing" textLength="467.0381" x="471" y="653.292">check_password(password: String, hashed_password: String): bool</text></g><!--class Supabase--><g id="elem_Supabase"><rect codeLine="43" fill="#F1F1F1" height="113.1875" id="Supabase" rx="2.5" ry="2.5" style="stroke:#181818;stroke-width:0.5;" width="376.9502" x="1033" y="754"/><ellipse cx="1182.9258" cy="770" fill="#ADD1B2" rx="11" ry="11" style="stroke:#181818;stroke-width:1;"/><path d="M1185.8945,775.6406 Q1185.3164,775.9375 1184.6758,776.0781 Q1184.0352,776.2344 1183.332,776.2344 Q1180.832,776.2344 1179.5039,774.5938 Q1178.1914,772.9375 1178.1914,769.8125 Q1178.1914,766.6875 1179.5039,765.0313 Q1180.832,763.375 1183.332,763.375 Q1184.0352,763.375 1184.6758,763.5313 Q1185.332,763.6875 1185.8945,763.9844 L1185.8945,766.7031 Q1185.2695,766.125 1184.6758,765.8594 Q1184.082,765.5781 1183.457,765.5781 Q1182.1133,765.5781 1181.4258,766.6563 Q1180.7383,767.7188 1180.7383,769.8125 Q1180.7383,771.9063 1181.4258,772.9844 Q1182.1133,774.0469 1183.457,774.0469 Q1184.082,774.0469 1184.6758,773.7813 Q1185.2695,773.5 1185.8945,772.9219 L1185.8945,775.6406 Z " fill="#000000"/><text fill="#000000" font-family="sans-serif" font-size="14" lengthAdjust="spacing" textLength="68.5986" x="1203.4258" y="774.8467">Supabase</text><line style="stroke:#181818;stroke-width:0.5;" x1="1034" x2="1408.9502" y1="786" y2="786"/><line style="stroke:#181818;stroke-width:0.5;" x1="1034" x2="1408.9502" y1="794" y2="794"/><ellipse cx="1044" cy="807.6484" fill="#84BE84" rx="3" ry="3" style="stroke:#038048;stroke-width:1;"/><text fill="#000000" font-family="sans-serif" font-size="14" lengthAdjust="spacing" textLength="156.7686" x="1053" y="810.9951">init_supabase(): Client</text><ellipse cx="1044" cy="823.9453" fill="#84BE84" rx="3" ry="3" style="stroke:#038048;stroke-width:1;"/><text fill="#000000" font-family="sans-serif" font-size="14" lengthAdjust="spacing" textLength="203.6152" x="1053" y="827.292">create_user(user: User): void</text><ellipse cx="1044" cy="840.2422" fill="#84BE84" rx="3" ry="3" style="stroke:#038048;stroke-width:1;"/><text fill="#000000" font-family="sans-serif" font-size="14" lengthAdjust="spacing" textLength="233.7139" x="1053" y="843.5889">get_user(username: String): User</text><ellipse cx="1044" cy="856.5391" fill="#84BE84" rx="3" ry="3" style="stroke:#038048;stroke-width:1;"/><text fill="#000000" font-family="sans-serif" font-size="14" lengthAdjust="spacing" textLength="350.9502" x="1053" y="859.8857">create_transaction(transaction: Transaction): void</text></g><!--class StreamlitApp--><g id="elem_StreamlitApp"><rect codeLine="60" fill="#F1F1F1" height="129.4844" id="StreamlitApp" rx="2.5" ry="2.5" style="stroke:#181818;stroke-width:0.5;" width="278.3486" x="1342.5" y="7"/><ellipse cx="1431.6338" cy="23" fill="#ADD1B2" rx="11" ry="11" style="stroke:#181818;stroke-width:1;"/><path d="M1434.6025,28.6406 Q1434.0244,28.9375 1433.3838,29.0781 Q1432.7432,29.2344 1432.04,29.2344 Q1429.54,29.2344 1428.2119,27.5938 Q1426.8994,25.9375 1426.8994,22.8125 Q1426.8994,19.6875 1428.2119,18.0313 Q1429.54,16.375 1432.04,16.375 Q1432.7432,16.375 1433.3838,16.5313 Q1434.04,16.6875 1434.6025,16.9844 L1434.6025,19.7031 Q1433.9775,19.125 1433.3838,18.8594 Q1432.79,18.5781 1432.165,18.5781 Q1430.8213,18.5781 1430.1338,19.6563 Q1429.4463,20.7188 1429.4463,22.8125 Q1429.4463,24.9063 1430.1338,25.9844 Q1430.8213,27.0469 1432.165,27.0469 Q1432.79,27.0469 1433.3838,26.7813 Q1433.9775,26.5 1434.6025,25.9219 L1434.6025,28.6406 Z " fill="#000000"/><text fill="#000000" font-family="sans-serif" font-size="14" lengthAdjust="spacing" textLength="91.5811" x="1452.1338" y="27.8467">StreamlitApp</text><line style="stroke:#181818;stroke-width:0.5;" x1="1343.5" x2="1619.8486" y1="39" y2="39"/><line style="stroke:#181818;stroke-width:0.5;" x1="1343.5" x2="1619.8486" y1="47" y2="47"/><ellipse cx="1353.5" cy="60.6484" fill="#84BE84" rx="3" ry="3" style="stroke:#038048;stroke-width:1;"/><text fill="#000000" font-family="sans-serif" font-size="14" lengthAdjust="spacing" textLength="84.6973" x="1362.5" y="63.9951">main(): void</text><ellipse cx="1353.5" cy="76.9453" fill="#84BE84" rx="3" ry="3" style="stroke:#038048;stroke-width:1;"/><text fill="#000000" font-family="sans-serif" font-size="14" lengthAdjust="spacing" textLength="140.5332" x="1362.5" y="80.292">display_login(): void</text><ellipse cx="1353.5" cy="93.2422" fill="#84BE84" rx="3" ry="3" style="stroke:#038048;stroke-width:1;"/><text fill="#000000" font-family="sans-serif" font-size="14" lengthAdjust="spacing" textLength="153.1318" x="1362.5" y="96.5889">display_signup(): void</text><ellipse cx="1353.5" cy="109.5391" fill="#84BE84" rx="3" ry="3" style="stroke:#038048;stroke-width:1;"/><text fill="#000000" font-family="sans-serif" font-size="14" lengthAdjust="spacing" textLength="252.3486" x="1362.5" y="112.8857">display_dashboard(user: User): void</text><ellipse cx="1353.5" cy="125.8359" fill="#84BE84" rx="3" ry="3" style="stroke:#038048;stroke-width:1;"/><text fill="#000000" font-family="sans-serif" font-size="14" lengthAdjust="spacing" textLength="201.6055" x="1362.5" y="129.1826">display_transfer_form(): void</text></g><!--link User to Encryption--><g id="link_User_Encryption"><path codeLine="51" d="M816.52,375.01 C671.28,433.7 483.2931,509.6723 354.6431,561.6523 " fill="none" id="User-to-Encryption" style="stroke:#181818;stroke-width:1;"/><polygon fill="#181818" points="349.08,563.9,358.9231,564.2371,353.7159,562.0269,355.9261,556.8197,349.08,563.9" style="stroke:#181818;stroke-width:1;"/><text fill="#000000" font-family="sans-serif" font-size="13" lengthAdjust="spacing" textLength="31.0591" x="733.5" y="474.0669">Uses</text></g><!--link User to Password--><g id="link_User_Password"><path codeLine="52" d="M936.14,375.21 C872.7,440.15 790.2128,524.5881 740.6728,575.2981 " fill="none" id="User-to-Password" style="stroke:#181818;stroke-width:1;"/><polygon fill="#181818" points="736.48,579.59,745.6305,575.9474,739.974,576.0134,739.908,570.357,736.48,579.59" style="stroke:#181818;stroke-width:1;"/><text fill="#000000" font-family="sans-serif" font-size="13" lengthAdjust="spacing" textLength="31.0591" x="903.5" y="474.0669">Uses</text></g><!--link User to Supabase--><g id="link_User_Supabase"><path codeLine="53" d="M1001.56,375.04 C992.5,456.32 989.86,583.24 1041.5,677 C1058.53,707.93 1081.3046,730.1409 1109.8946,750.4009 " fill="none" id="User-to-Supabase" style="stroke:#181818;stroke-width:1;"/><polygon fill="#181818" points="1114.79,753.87,1109.7596,745.4027,1110.7105,750.9791,1105.1341,751.93,1114.79,753.87" style="stroke:#181818;stroke-width:1;"/><text fill="#000000" font-family="sans-serif" font-size="13" lengthAdjust="spacing" textLength="135.6875" x="1042.5" y="625.0669">Stores and Retrieves</text></g><!--link Supabase to User--><g id="link_Supabase_User"><path codeLine="57" d="M1218.98,753.78 C1215.23,702.94 1205.86,626.45 1182.5,564 C1157.04,495.93 1116.6526,431.4159 1080.1226,380.1659 " fill="none" id="Supabase-to-User" style="stroke:#181818;stroke-width:1;"/><polygon fill="#181818" points="1076.64,375.28,1078.6066,384.9305,1079.5421,379.3516,1085.1211,380.2871,1076.64,375.28" style="stroke:#181818;stroke-width:1;"/><text fill="#000000" font-family="sans-serif" font-size="13" lengthAdjust="spacing" textLength="113.2358" x="1210.5" y="625.0669">CRUD Operations</text></g><!--link Transaction to Supabase--><g id="link_Transaction_Supabase"><path codeLine="54" d="M1442.98,534.24 C1416.83,576.03 1380.56,631.2 1344.5,677 C1323.72,703.39 1302.9677,726.5149 1281.0177,749.5649 " fill="none" id="Transaction-to-Supabase" style="stroke:#181818;stroke-width:1;"/><polygon fill="#181818" points="1276.88,753.91,1285.9832,750.1509,1280.3281,750.2891,1280.1898,744.634,1276.88,753.91" style="stroke:#181818;stroke-width:1;"/><text fill="#000000" font-family="sans-serif" font-size="13" lengthAdjust="spacing" textLength="41.4185" x="1422.5" y="625.0669">Stores</text></g><!--link JWT to Supabase--><g id="link_JWT_Supabase"><path codeLine="55" d="M1812.45,510.05 C1693.53,570.31 1471.9121,682.608 1336.4921,751.228 " fill="none" id="JWT-to-Supabase" style="stroke:#181818;stroke-width:1;"/><polygon fill="#181818" points="1331.14,753.94,1340.9762,753.44,1335.6001,751.68,1337.3601,746.3039,1331.14,753.94" style="stroke:#181818;stroke-width:1;"/><text fill="#000000" font-family="sans-serif" font-size="13" lengthAdjust="spacing" textLength="136.3032" x="1695.5" y="625.0669">Verifies User Session</text></g><!--link Encryption to Supabase--><g id="link_Encryption_Supabase"><path codeLine="56" d="M416.09,673.28 C421.95,674.56 427.76,675.8 433.5,677 C637.2,719.52 866.7981,756.7987 1026.9181,781.1287 " fill="none" id="Encryption-to-Supabase" style="stroke:#181818;stroke-width:1;"/><polygon fill="#181818" points="1032.85,782.03,1024.553,776.7234,1027.9067,781.2789,1023.3512,784.6326,1032.85,782.03" style="stroke:#181818;stroke-width:1;"/><text fill="#000000" font-family="sans-serif" font-size="13" lengthAdjust="spacing" textLength="146.9609" x="672.5" y="720.0669">Stores Encrypted Data</text></g><!--link StreamlitApp to User--><g id="link_StreamlitApp_User"><path codeLine="68" d="M1346.74,136.13 C1295.95,160.11 1242.9556,185.1281 1189.3956,210.4181 " fill="none" id="StreamlitApp-to-User" style="stroke:#181818;stroke-width:1;"/><polygon fill="#181818" points="1183.97,212.98,1193.8163,212.7543,1188.4913,210.8451,1190.4005,205.5202,1183.97,212.98" style="stroke:#181818;stroke-width:1;"/><text fill="#000000" font-family="sans-serif" font-size="13" lengthAdjust="spacing" textLength="117.1904" x="1276.5" y="179.0669">Displays User Info</text></g><!--link StreamlitApp to Transaction--><g id="link_StreamlitApp_Transaction"><path codeLine="69" d="M1481.5,136.12 C1481.5,209.91 1481.5,324.84 1481.5,398.71 " fill="none" id="StreamlitApp-to-Transaction" style="stroke:#181818;stroke-width:1;"/><polygon fill="#181818" points="1481.5,404.71,1485.5,395.71,1481.5,399.71,1477.5,395.71,1481.5,404.71" style="stroke:#181818;stroke-width:1;"/><text fill="#000000" font-family="sans-serif" font-size="13" lengthAdjust="spacing" textLength="137.4395" x="1482.5" y="179.0669">Creates Transactions</text></g><!--link StreamlitApp to JWT--><g id="link_StreamlitApp_JWT"><path codeLine="70" d="M1589.7,136.15 C1603.2,145.58 1616.48,155.63 1628.5,166 C1724.77,249.05 1813.7336,363.1076 1858.6636,424.1576 " fill="none" id="StreamlitApp-to-JWT" style="stroke:#181818;stroke-width:1;"/><polygon fill="#181818" points="1862.22,428.99,1860.107,419.3705,1859.2563,424.963,1853.6638,424.1124,1862.22,428.99" style="stroke:#181818;stroke-width:1;"/><text fill="#000000" font-family="sans-serif" font-size="13" lengthAdjust="spacing" textLength="145.9072" x="1646.5" y="179.0669">Manages User Session</text></g><!--SRC=[dLNRZfim47tdAzodicho0tce56MZNjHjLxcqZsW2G-86RCisMKMh_dl7O8ZD4bLg7YBmdBcTEMFU5LXoWMopNksMtpzzMxEy0cEIv3rRkGSqh9IQxGrg1g9WEmt2G6wv5Em911onHc6Jrgb3lIQCVlE6dWNKk61RgxauTgSdC2SiCaNe5wcBsCWlyVi1AX1v7E53hX4iPYvyEiunO-F03mjsaRpeN8zef_q8vKhlK8qgN0AVV287rB8HTi7AIeBj4_n9F0SXGPuAWw907VUcCKT-6Pz6eRiZosiq5cerIOEzPKlZD3CsJd6_ydZMQv7hgt8XVKktWxwZCrxZSXorEC0oigSFCS9RCo8NKlTtAylD_N2rQ4Ok1GOktf_4yq_dMqTjFrz_xTYoiIVIASyXwCiPNYCwVx_OAN64HH6XlBosI2lFA0BO4wXnxcUlH_QPXEzYT9c7Ov_UhSMm5Ec4YAFHdp0_tqVFs9qbep07AQjnYTj6mG4C-jBwrxuqBhZDZ3zqGrrLt6tyv39sU_GVIpSXv-1v4MvLfDiDLkr4YLnbalR-cSy_1efjamIMvu6K-BnlsrKdDMs2k-msI9NYXN3XLa_14wUbsF3J2OMZlnMtQ8nJNh1BasdNlSpP8yay6QRXmFkMuTLc_yX-ADHTuuu58XIXhhXbIwMgMEI3ZKpzJ6lW8escL72ZAhXcbJpUCnb-58sQjXMak8C4KkCT5VJ0TgWbweoKLwV1AACoRyq-TdwUn2-Yb6-Hkr0egrP8qJLithhGj1R-ynNFvoy0]--></g></svg>